<svg width="1000" height="1000" id="iter1" xmlns="http://www.w3.org/2000/svg" xmlns:xlink="http://www.w3.org/1999/xlink"><g><path d="M 0 500h 15.625 v -15.625 h 15.625 v 15.625 v 15.625 h 15.625 v -15.625 h 15.625 v -15.625 h -15.625 v -15.625 h 15.625 h 15.625 v -15.625 h -15.625 v -15.625 h 15.625 v -15.625 h 15.625 v 15.625 v 15.625 h 15.625 v -15.625 h 15.625 v 15.625 h 15.625 v 15.625 h -15.625 h -15.625 v 15.625 h 15.625 v 15.625 v 15.625 h 15.625 v 15.625 h -15.625 h -15.625 v 15.625 h 15.625 v 15.625 h 15.625 v -15.625 h 15.625 v 15.625 v 15.625 h 15.625 v -15.625 h 15.625 v -15.625 h -15.625 v -15.625 h 15.625 h 15.625 v -15.625 h -15.625 v -15.625 h 15.625 v -15.625 h 15.625 v 15.625 v 15.625 h 15.625 v -15.625 h 15.625 v -15.625 h -15.625 v -15.625 h 15.625 h 15.625 v -15.625 h -15.625 v -15.625 h -15.625 v 15.625 h -15.625 v -15.625 v -15.625 h -15.625 v 15.625 h -15.625 v -15.625 h -15.625 v -15.625 h 15.625 h 15.625 v -15.625 h -15.625 v -15.625 h 15.625 v -15.625 h 15.625 v 15.625 v 15.625 h 15.625 v -15.625 h 15.625 h 15.625 v -15.625 h 15.625 v 15.625 v 15.625 h 15.625 v -15.625 h 15.625 v -15.625 h -15.625 v -15.625 h 15.625 h 15.625 v -15.625 h -15.625 v -15.625 h -15.625 v 15.625 h -15.625 v -15.625 v -15.625 h -15.625 v 15.625 h -15.625 v -15.625 h -15.625 v -15.625 h 15.625 h 15.625 v -15.625 h -15.625 v -15.625 h 15.625 v -15.625 h 15.625 v 15.625 v 15.625 h 15.625 v -15.625 h 15.625 v -15.625 h -15.625 v -15.625 h 15.625 h 15.625 v -15.625 h -15.625 v -15.625 h 15.625 v -15.625 h 15.625 v 15.625 v 15.625 h 15.625 v -15.625 h 15.625 v 15.625 h 15.625 v 15.625 h -15.625 h -15.625 v 15.625 h 15.625 v 15.625 v 15.625 h 15.625 v 15.625 h -15.625 h -15.625 v 15.625 h 15.625 v 15.625 h 15.625 v -15.625 h 15.625 v 15.625 v 15.625 h 15.625 v -15.625 h 15.625 v -15.625 h -15.625 v -15.625 h 15.625 h 15.625 v -15.625 h -15.625 v -15.625 h 15.625 v -15.625 h 15.625 v 15.625 v 15.625 h 15.625 v -15.625 h 15.625 v 15.625 h 15.625 v 15.625 h -15.625 h -15.625 v 15.625 h 15.625 v 15.625 h 15.625 v -15.625 h 15.625 v 15.625 v 15.625 h 15.625 v -15.625 h 15.625 v 15.625 h 15.625 v 15.625 h -15.625 h -15.625 v 15.625 h 15.625 v 15.625 h -15.625 v 15.625 h -15.625 v -15.625 v -15.625 h -15.625 v 15.625 h -15.625 h -15.625 v 15.625 h -15.625 v -15.625 v -15.625 h -15.625 v 15.625 h -15.625 v 15.625 h 15.625 v 15.625 h -15.625 h -15.625 v 15.625 h 15.625 v 15.625 h 15.625 v -15.625 h 15.625 v 15.625 v 15.625 h 15.625 v -15.625 h 15.625 v 15.625 h 15.625 v 15.625 h -15.625 h -15.625 v 15.625 h 15.625 v 15.625 v 15.625 h 15.625 v 15.625 h -15.625 h -15.625 v 15.625 h 15.625 v 15.625 h 15.625 v -15.625 h 15.625 v 15.625 v 15.625 h 15.625 v -15.625 h 15.625 v 15.625 h 15.625 v 15.625 h -15.625 h -15.625 v 15.625 h 15.625 v 15.625 h -15.625 v 15.625 h -15.625 v -15.625 v -15.625 h -15.625 v 15.625 h -15.625 h -15.625 v 15.625 h -15.625 v -15.625 v -15.625 h -15.625 v 15.625 h -15.625 v 15.625 h 15.625 v 15.625 h -15.625 h -15.625 v 15.625 h 15.625 v 15.625 h 15.625 v -15.625 h 15.625 v 15.625 v 15.625 h 15.625 v -15.625 h 15.625 v 15.625 h 15.625 v 15.625 h -15.625 h -15.625 v 15.625 h 15.625 v 15.625 h 15.625 v -15.625 h 15.625 v 15.625 v 15.625 h 15.625 v -15.625 h 15.625 v -15.625 h -15.625 v -15.625 h 15.625 h 15.625 v -15.625 h -15.625 v -15.625 h 15.625 v -15.625 h 15.625 v 15.625 v 15.625 h 15.625 v -15.625 h 15.625 v 15.625 h 15.625 v 15.625 h -15.625 h -15.625 v 15.625 h 15.625 v 15.625 v 15.625 h 15.625 v 15.625 h -15.625 h -15.625 v 15.625 h 15.625 v 15.625 h 15.625 v -15.625 h 15.625 v 15.625 v 15.625 h 15.625 v -15.625 h 15.625 v -15.625 h -15.625 v -15.625 h 15.625 h 15.625 v -15.625 h -15.625 v -15.625 h 15.625 v -15.625 h 15.625 v 15.625 v 15.625 h 15.625 v -15.625 h 15.625 v -15.625 h -15.625 v -15.625 h 15.625 h 15.625 v -15.625 h -15.625 v -15.625 h -15.625 v 15.625 h -15.625 v -15.625 v -15.625 h -15.625 v 15.625 h -15.625 v -15.625 h -15.625 v -15.625 h 15.625 h 15.625 v -15.625 h -15.625 v -15.625 h 15.625 v -15.625 h 15.625 v 15.625 v 15.625 h 15.625 v -15.625 h 15.625 h 15.625 v -15.625 h 15.625 v 15.625 v 15.625 h 15.625 v -15.625 h 15.625 v -15.625 h -15.625 v -15.625 h 15.625 h 15.625 v -15.625 h -15.625 v -15.625 h -15.625 v 15.625 h -15.625 v -15.625 v -15.625 h -15.625 v 15.625 h -15.625 v -15.625 h -15.625 v -15.625 h 15.625 h 15.625 v -15.625 h -15.625 v -15.625 h 15.625 v -15.625 h 15.625 v 15.625 v 15.625 h 15.625 v -15.625 h 15.625 v -15.625 h -15.625 v -15.625 h 15.625 h 15.625 v -15.625 h -15.625 v -15.625 h 15.625 v -15.625 h 15.625 v 15.625 v 15.625 h 15.625 v -15.625 h 15.625 v 15.625 h 15.625 v 15.625 h -15.625 h -15.625 v 15.625 h 15.625 v 15.625 v 15.625 h 15.625 v 15.625 h -15.625 h -15.625 v 15.625 h 15.625 v 15.625 h 15.625 v -15.625 h 15.625 v 15.625 v 15.625 h 15.625 v -15.625 h 15.625 v -15.625 h -15.625 v -15.625 h 15.625 h 15.625 v -15.625 h -15.625 v -15.625 h 15.625 v -15.625 h 15.625 v 15.625 v 15.625 h 15.625 v -15.625 h 15.625 " fill="transparent" stroke="black"/></g></svg>