<svg width="1000" height="1000" id="iter1" xmlns="http://www.w3.org/2000/svg" xmlns:xlink="http://www.w3.org/1999/xlink"><g><path d="M 250 250h 125 v -125 v -125 h 125 h 125 v 125 h -125 v 125 h 125 h 125 v 125 h -125 v 125 h 125 h 125 v -125 v -125 h 125 v 125 h 125 h 125 v 125 v 125 h -125 v -125 h -125 v 125 v 125 h -125 v -125 h -125 v 125 v 125 h 125 h 125 v 125 h -125 v 125 v 125 h -125 h -125 v -125 h 125 v -125 h -125 h -125 v -125 h 125 v -125 h -125 h -125 v 125 v 125 h -125 v -125 h -125 h -125 v -125 v -125 h 125 v 125 h 125 v -125 v -125 h 125 v 125 h 125 v -125 v -125 h -125 h -125 v -125 " fill="#ddd" stroke="black"/></g></svg>