<svg width="600" height="600" id="iter1" xmlns="http://www.w3.org/2000/svg" xmlns:xlink="http://www.w3.org/1999/xlink"><g><path d="M 100 100h 50 v -50 v -50 h 50 h 50 v 50 h -50 v 50 h 50 h 50 v 50 h -50 v 50 h 50 h 50 v -50 v -50 h 50 v 50 h 50 h 50 v 50 v 50 h -50 v -50 h -50 v 50 v 50 h -50 v -50 h -50 v 50 v 50 h 50 h 50 v 50 h -50 v 50 v 50 h -50 h -50 v -50 h 50 v -50 h -50 h -50 v -50 h 50 v -50 h -50 h -50 v 50 v 50 h -50 v -50 h -50 h -50 v -50 v -50 h 50 v 50 h 50 v -50 v -50 h 50 v 50 h 50 v -50 v -50 h -50 h -50 v -50 " fill="transparent" stroke="black"/></g></svg>