<svg width="NaN" height="NaN" id="iter1" xmlns="http://www.w3.org/2000/svg" xmlns:xlink="http://www.w3.org/1999/xlink"><g><path d="M 0 150h 8.333333333333334 v -8.333333333333334 v -8.333333333333334 h 8.333333333333334 h 8.333333333333334 v 8.333333333333334 h -8.333333333333334 v 8.333333333333334 h 8.333333333333334 h 8.333333333333334 v 8.333333333333334 h -8.333333333333334 v 8.333333333333334 h 8.333333333333334 h 8.333333333333334 v -8.333333333333334 v -8.333333333333334 h 8.333333333333334 v -8.333333333333334 h -8.333333333333334 h -8.333333333333334 v -8.333333333333334 v -8.333333333333334 h 8.333333333333334 v 8.333333333333334 h 8.333333333333334 v -8.333333333333334 v -8.333333333333334 h 8.333333333333334 v 8.333333333333334 h 8.333333333333334 v -8.333333333333334 v -8.333333333333334 h -8.333333333333334 h -8.333333333333334 v -8.333333333333334 v -8.333333333333334 h -8.333333333333334 h -8.333333333333334 v -8.333333333333334 v -8.333333333333334 h 8.333333333333334 v 8.333333333333334 h 8.333333333333334 v -8.333333333333334 v -8.333333333333334 h 8.333333333333334 v 8.333333333333334 h 8.333333333333334 v -8.333333333333334 v -8.333333333333334 h -8.333333333333334 h -8.333333333333334 v -8.333333333333334 h 8.333333333333334 v -8.333333333333334 v -8.333333333333334 h 8.333333333333334 h 8.333333333333334 v 8.333333333333334 h -8.333333333333334 v 8.333333333333334 h 8.333333333333334 h 8.333333333333334 v 8.333333333333334 h -8.333333333333334 v 8.333333333333334 h 8.333333333333334 h 8.333333333333334 v -8.333333333333334 v -8.333333333333334 h 8.333333333333334 h 8.333333333333334 v -8.333333333333334 v -8.333333333333334 h 8.333333333333334 h 8.333333333333334 v 8.333333333333334 h -8.333333333333334 v 8.333333333333334 h 8.333333333333334 h 8.333333333333334 v 8.333333333333334 h -8.333333333333334 v 8.333333333333334 h 8.333333333333334 h 8.333333333333334 v -8.333333333333334 v -8.333333333333334 h 8.333333333333334 v 8.333333333333334 h 8.333333333333334 h 8.333333333333334 v 8.333333333333334 v 8.333333333333334 h -8.333333333333334 v -8.333333333333334 h -8.333333333333334 v 8.333333333333334 v 8.333333333333334 h -8.333333333333334 v -8.333333333333334 h -8.333333333333334 v 8.333333333333334 v 8.333333333333334 h 8.333333333333334 h 8.333333333333334 v 8.333333333333334 h -8.333333333333334 v 8.333333333333334 v 8.333333333333334 h -8.333333333333334 h -8.333333333333334 v -8.333333333333334 h 8.333333333333334 v -8.333333333333334 h -8.333333333333334 h -8.333333333333334 v -8.333333333333334 h 8.333333333333334 v -8.333333333333334 h -8.333333333333334 h -8.333333333333334 v 8.333333333333334 v 8.333333333333334 h -8.333333333333334 v 8.333333333333334 h 8.333333333333334 h 8.333333333333334 v 8.333333333333334 v 8.333333333333334 h -8.333333333333334 v -8.333333333333334 h -8.333333333333334 v 8.333333333333334 v 8.333333333333334 h -8.333333333333334 v -8.333333333333334 h -8.333333333333334 v 8.333333333333334 v 8.333333333333334 h 8.333333333333334 h 8.333333333333334 v 8.333333333333334 h 8.333333333333334 v -8.333333333333334 v -8.333333333333334 h 8.333333333333334 h 8.333333333333334 v 8.333333333333334 h -8.333333333333334 v 8.333333333333334 h 8.333333333333334 h 8.333333333333334 v 8.333333333333334 h -8.333333333333334 v 8.333333333333334 h 8.333333333333334 h 8.333333333333334 v -8.333333333333334 v -8.333333333333334 h 8.333333333333334 h 8.333333333333334 v -8.333333333333334 v -8.333333333333334 h 8.333333333333334 h 8.333333333333334 v 8.333333333333334 h -8.333333333333334 v 8.333333333333334 h 8.333333333333334 h 8.333333333333334 v 8.333333333333334 h -8.333333333333334 v 8.333333333333334 h 8.333333333333334 h 8.333333333333334 v -8.333333333333334 v -8.333333333333334 h 8.333333333333334 v 8.333333333333334 h 8.333333333333334 h 8.333333333333334 v 8.333333333333334 v 8.333333333333334 h -8.333333333333334 v -8.333333333333334 h -8.333333333333334 v 8.333333333333334 v 8.333333333333334 h -8.333333333333334 v -8.333333333333334 h -8.333333333333334 v 8.333333333333334 v 8.333333333333334 h 8.333333333333334 h 8.333333333333334 v 8.333333333333334 h -8.333333333333334 v 8.333333333333334 v 8.333333333333334 h -8.333333333333334 h -8.333333333333334 v -8.333333333333334 h 8.333333333333334 v -8.333333333333334 h -8.333333333333334 h -8.333333333333334 v -8.333333333333334 h 8.333333333333334 v -8.333333333333334 h -8.333333333333334 h -8.333333333333334 v 8.333333333333334 v 8.333333333333334 h -8.333333333333334 v 8.333333333333334 h 8.333333333333334 h 8.333333333333334 v 8.333333333333334 v 8.333333333333334 h -8.333333333333334 v -8.333333333333334 h -8.333333333333334 v 8.333333333333334 v 8.333333333333334 h -8.333333333333334 v -8.333333333333334 h -8.333333333333334 v 8.333333333333334 v 8.333333333333334 h 8.333333333333334 h 8.333333333333334 v 8.333333333333334 h 8.333333333333334 v -8.333333333333334 v -8.333333333333334 h 8.333333333333334 h 8.333333333333334 v 8.333333333333334 h -8.333333333333334 v 8.333333333333334 h 8.333333333333334 h 8.333333333333334 v 8.333333333333334 h -8.333333333333334 v 8.333333333333334 h 8.333333333333334 h 8.333333333333334 v -8.333333333333334 v -8.333333333333334 h 8.333333333333334 h 8.333333333333334 v -8.333333333333334 v -8.333333333333334 h 8.333333333333334 h 8.333333333333334 v 8.333333333333334 h -8.333333333333334 v 8.333333333333334 h 8.333333333333334 h 8.333333333333334 v 8.333333333333334 h -8.333333333333334 v 8.333333333333334 h 8.333333333333334 h 8.333333333333334 v -8.333333333333334 v -8.333333333333334 h 8.333333333333334 v -8.333333333333334 h -8.333333333333334 h -8.333333333333334 v -8.333333333333334 v -8.333333333333334 h 8.333333333333334 v 8.333333333333334 h 8.333333333333334 v -8.333333333333334 v -8.333333333333334 h 8.333333333333334 v 8.333333333333334 h 8.333333333333334 v -8.333333333333334 v -8.333333333333334 h -8.333333333333334 h -8.333333333333334 v -8.333333333333334 v -8.333333333333334 h -8.333333333333334 h -8.333333333333334 v -8.333333333333334 v -8.333333333333334 h 8.333333333333334 v 8.333333333333334 h 8.333333333333334 v -8.333333333333334 v -8.333333333333334 h 8.333333333333334 v 8.333333333333334 h 8.333333333333334 v -8.333333333333334 v -8.333333333333334 h -8.333333333333334 h -8.333333333333334 v -8.333333333333334 h 8.333333333333334 v -8.333333333333334 v -8.333333333333334 h 8.333333333333334 h 8.333333333333334 v 8.333333333333334 h -8.333333333333334 v 8.333333333333334 h 8.333333333333334 h 8.333333333333334 v 8.333333333333334 h -8.333333333333334 v 8.333333333333334 h 8.333333333333334 h 8.333333333333334 v -8.333333333333334 v -8.333333333333334 h 8.333333333333334 " fill="transparent" stroke="black"/></g></svg>